<svg
        viewBox="0 0 300 300"
        xmlns="http://www.w3.org/2000/svg">
    <rect
            fill="#1f293700"
            width="300"
            height="300"
            x="0"
            y="6"
            ry="0"/>
    <path
            fill="#1f2937"
            d="m 104.28895,272.57334 h 90.74492 C 271.21898,272.57334 300,235.66595 300,194.01806 c 0,-24.04053 -11.851,-39.9548 -30.1354,-49.4356 16.59142,-10.8352 23.36343,-26.74946 23.36343,-44.01806 0,-36.230254 -24.04065,-73.137728 -101.91877,-73.137728 h -90.74491 c -75.169317,0 -98.5327518,43.679474 -98.5327518,85.665918 H 70.090298 c 0,-10.83519 7.78781,-20.993214 28.78105,-20.993214 h 92.099322 c 18.96163,0.33858 26.41083,8.126424 26.41083,16.930014 0,9.81945 -8.80362,14.89844 -23.70203,14.89844 H 77.878108 v 52.48308 H 200.45148 c 14.89842,0 23.70204,5.07898 23.70204,14.55973 0,9.14227 -8.80362,16.93004 -29.11965,16.93004 h -90.74492 c -27.765242,0 -35.553052,-9.81938 -36.230262,-20.99322 H -3.7419871e-6 c 0,23.02483 11.8510177419871,85.66588 104.2889537419871,85.66588 z"
            aria-label="3"/>
</svg>
