<svg xmlns="http://www.w3.org/2000/svg" xmlns:xlink="http://www.w3.org/1999/xlink" version="1.1" id="Layer_1" x="0px"
     y="0px" viewBox="0 0 793.4 157.4" style="enable-background:new 0 0 793.4 157.4;" xml:space="preserve">
<style type="text/css">
	.st0{fill:#FFFFFF;}
	.st1{fill:#FFFFFF;}
</style>
    <g>
	<path class="st0" d="M47.6,12.6H0V5h103.6v7.6H55.8V145h-8.2V12.6z"/>
        <path class="st0"
              d="M134.2,0h7.8v63.2c6-7.4,16.8-15.6,32.4-15.6c19.6,0,34.4,13.8,34.4,33.4v64H201V82.8c0-16-12-27.4-28-27.4   c-13.6,0-23.6,6.8-31,16V145h-7.8V0z"/>
        <path class="st0"
              d="M365.4,50.8h7.6v20.4c4.6-11.4,16.8-23.6,32.6-23.6c3,0,6,0.4,8.2,1v9c-2.8-0.8-6-1.2-9-1.2   c-16.2,0-26.2,11.8-31.6,23.8V145h-7.8V50.8z"/>
        <path class="st0"
              d="M436.8,140.8v-8.2c10.2,5.4,21.6,8.2,31.8,8.2c17.2,0,28.6-6.8,28.6-20.6c0-9.6-7.2-15.8-20.2-18.8l-16.6-3.6   c-12.8-2.8-23.8-9.8-23.8-24.2c0-15.6,12.4-26,33.4-26c12.4,0,22.8,3.2,30.6,6.6v8.4c-9.2-5-21.2-7.8-30.6-7.8   c-17.4,0-25.6,7.8-25.6,18.8c0,9.8,8.2,14.8,18.4,17l16.2,3.6c17,3.6,26.2,12.4,26.2,26c0,18.6-15.2,27.8-36.6,27.8   C456.2,148,444.8,144.6,436.8,140.8z"/>
        <path class="st0"
              d="M542.6,125.4V58H525v-7.2h18v-34l7.4-4.4v38.4H575V58h-24.6v66.4c0,12.4,7.2,16.4,14.4,16.4   c4.8,0,8-1,10.4-2.2v7.4c-2.2,0.8-6.8,2-12.2,2C552.4,148,542.6,141.4,542.6,125.4z"/>
        <path class="st0"
              d="M599,97.2c0-30.8,20.6-49.6,46-49.6c24.4,0,43.4,19.2,43.4,46.8c0,2.4-0.2,5.2-0.4,6.4h-80.8   c0.4,23.8,17.8,39.6,38.4,39.6c14.8,0,26-3.6,39-13v8.6c-8.2,5.6-20.2,12-39,12C620.4,148,599,129.8,599,97.2z M680,93.8   c0.2-24.4-15.6-38.8-35-38.8c-21.2,0-36.8,15.4-37.6,38.8H680z"/>
        <path class="st0"
              d="M719,50.8h7.6v12.6c6-7.4,16.8-15.8,32.4-15.8c19.8,0,34.4,13.8,34.4,33.4v64h-8V82.8   c0-16-11.8-27.4-27.8-27.4c-13.6,0-23.4,6.8-30.8,16V145H719V50.8z"/>
        <g>
		<path class="st1"
              d="M286.7,44.5c5.2,0,8.8-3.8,8.8-8.6c0-5-3.6-8.8-8.8-8.8c-4.8,0-8.4,3.8-8.4,8.8    C278.3,40.7,281.9,44.5,286.7,44.5z"/>
            <path class="st1"
                  d="M335.5,137.7v-43c0-28-19.4-50.2-48.6-50.2s-48.6,22.2-48.6,50.2v43h-9.6v7.2h42.7    c1.5,7.2,7.5,12.5,15.1,12.5c8.3,0,14.4-5.3,15.9-12.5h41.2v-7.2H335.5z M286.8,149.1c-3,0-5.5-1.7-6.7-4.2h13.7    C292.6,147.4,290,149.1,286.8,149.1z M327.3,137.7h-80.8v-43c0-24.8,16.6-42.6,40.4-42.6c23.6,0,40.4,17.8,40.4,42.6V137.7z"/>
	</g>
</g>
</svg>